<svg xmlns="http://www.w3.org/2000/svg" viewBox="0 0 100 100" width="100%" height="100%">
  <!-- Perfect Penrose Impossible Triangle Symbol -->
  <polygon points="50,65 38,44 62,44" fill="#2d3e42" />
  <path d="M46.5,8 L13,67.5 C12,69.5 13,71.5 15,72 L23.5,72 L49.5,23.5 L58,38.5 L65.5,34 L49.5,6 C48.5,4.5 47.5,5.5 46.5,8 Z" fill="#2d3e42" />
  <path d="M53.5,8 L87,67.5 C88,69.5 87,71.5 85,72 L76.5,72 L50.5,23.5 L42,38.5 L34.5,34 L50.5,6 C51.5,4.5 52.5,5.5 53.5,8 Z" fill="#3b4b4e" />
  <path d="M21,78 L79,78 C81,78 82,76.5 81.5,74.5 L78.5,69 L21.5,69 L18.5,74.5 C18,76.5 19,78 21,78 Z" fill="#1f2c2f" />
</svg>
